<svg id="Layer_1" data-name="Layer 1" xmlns="http://www.w3.org/2000/svg" viewBox="0 0 24 24"><defs><style>.cls-1{fill:#231f20;stroke:#231f20;stroke-width:2px;}</style></defs><path class="cls-1" d="M10.31,7.17c.64-1.6,1-2.4,1.48-2.51a1,1,0,0,1,.42,0c.52.11.84.91,1.48,2.51a4.57,4.57,0,0,0,.89,1.68,2.26,2.26,0,0,0,.31.23,4.52,4.52,0,0,0,1.88.37c1.66.15,2.5.22,2.75.7a.94.94,0,0,1,.11.32c.08.53-.53,1.09-1.76,2.2l-.34.31a4.38,4.38,0,0,0-1,1.11,2,2,0,0,0-.2.62,4.42,4.42,0,0,0,.2,1.5l.06.27c.3,1.36.45,2,.26,2.37a1,1,0,0,1-.82.51c-.38,0-.92-.42-2-1.3a4.55,4.55,0,0,0-1.46-1,2.05,2.05,0,0,0-1.1,0,4.55,4.55,0,0,0-1.46,1c-1.08.88-1.62,1.32-2,1.3a1,1,0,0,1-.82-.51c-.19-.33,0-1,.26-2.37l.06-.27a4.42,4.42,0,0,0,.2-1.5,2,2,0,0,0-.2-.62,4.38,4.38,0,0,0-1-1.11l-.34-.31C4.9,11.56,4.29,11,4.37,10.47a.94.94,0,0,1,.11-.32c.25-.48,1.09-.55,2.75-.7a4.52,4.52,0,0,0,1.88-.37,2.26,2.26,0,0,0,.31-.23A4.57,4.57,0,0,0,10.31,7.17Z"/></svg>