<svg id="Layer_1" data-name="Layer 1" xmlns="http://www.w3.org/2000/svg" viewBox="0 0 24 24"><defs><style>.cls-1{fill:#231f20;}</style></defs><path class="cls-1" d="M12,3a9,9,0,1,0,9,9A9,9,0,0,0,12,3Zm1.3,4.39c.15-.25.27-.39.39-.42s.3,0,.56.21l.41.29,1.27.92a1.8,1.8,0,0,1,.24.2l0,0a.46.46,0,0,1,.13.23c0,.12-.08.29-.29.52l-.89.94a2.88,2.88,0,0,0-.7-1.1,2.71,2.71,0,0,0-.9-.61,2.19,2.19,0,0,0-.77-.17ZM7.68,8.84q0-.18.39-.45L9.75,7.18C10,7,10.2,6.94,10.3,7s.24.17.38.42l.8,1.53h0A1.86,1.86,0,0,0,11.11,11l0,.08.34.84c.23.56.4.91.11,1.2s-.65.23-1.08-.2a2,2,0,0,1-.47-.85,3.86,3.86,0,0,1-.11-.68L8,9.36C7.76,9.13,7.67,9,7.68,8.84Zm.55,6.21c-.26.13-.45.17-.56.12l-.07,0h0a1.1,1.1,0,0,1-.2-.38l0-.08-.66-2a.82.82,0,0,1,0-.6.86.86,0,0,1,.55-.23l1.38-.22a3.69,3.69,0,0,0,1,2.18,3.85,3.85,0,0,0,.46.38Zm9.07-2.37-.64,2c-.08.29-.19.47-.31.51s-.3,0-.57-.12l-2.53-1.14.41,2.66a.74.74,0,0,1-.06.59.85.85,0,0,1-.58.14H10.93c-.3,0-.49-.05-.56-.14a.79.79,0,0,1,0-.59l.28-2.08a1.93,1.93,0,0,0,2.13-.38A1.78,1.78,0,0,0,13.07,12l-.35-.82c-.24-.56-.44-1-.16-1.23s.64-.19,1,.17a2.1,2.1,0,0,1,.54,1.32l2.71.44a.86.86,0,0,1,.55.23A.82.82,0,0,1,17.3,12.68Z"/></svg>