<svg id="Layer_1" data-name="Layer 1" xmlns="http://www.w3.org/2000/svg" viewBox="0 0 24 24"><defs><style>.cls-1{fill:none;stroke:#231f20;}</style></defs><path class="cls-1" d="M10.14,6.59c.79-2,1.18-2.94,1.86-2.94s1.07,1,1.86,2.94l0,.09c.45,1.11.67,1.66,1.12,2a4.44,4.44,0,0,0,2.24.5h.21c1.95.18,2.92.27,3.13.89s-.51,1.27-2,2.59l-.48.43c-.73.67-1.1,1-1.27,1.44a1.83,1.83,0,0,0-.08.25,4.49,4.49,0,0,0,.21,1.9l.07.3c.39,1.78.59,2.66.24,3.05a1,1,0,0,1-.48.29c-.49.14-1.2-.44-2.61-1.58a4.65,4.65,0,0,0-1.91-1.22,2.29,2.29,0,0,0-.64,0,4.65,4.65,0,0,0-1.91,1.22c-1.41,1.14-2.12,1.72-2.61,1.58A1,1,0,0,1,6.68,20c-.35-.39-.15-1.27.24-3.05l.07-.3a4.49,4.49,0,0,0,.21-1.9,1.83,1.83,0,0,0-.08-.25c-.17-.44-.54-.77-1.27-1.44l-.48-.43c-1.45-1.32-2.17-2-2-2.59s1.18-.71,3.13-.89h.21A4.44,4.44,0,0,0,9,8.68c.45-.34.67-.89,1.12-2Z"/></svg>