<svg id="Layer_1" data-name="Layer 1" xmlns="http://www.w3.org/2000/svg" viewBox="0 0 24 24"><defs><style>.cls-1{fill:none;stroke:#231f20;stroke-miterlimit:10;}.cls-2{fill:#231f20;}</style></defs><path class="cls-1" d="M12,3a9,9,0,1,0,9,9A9,9,0,0,0,12,3Z"/><path class="cls-2" d="M13.74,7h-.05c-.12,0-.24.17-.39.42l-.53,1a2.19,2.19,0,0,1,.77.17,2.71,2.71,0,0,1,.9.61,2.88,2.88,0,0,1,.7,1.1L16,9.36c.21-.23.3-.4.29-.52a.46.46,0,0,0-.13-.23l0,0a1.8,1.8,0,0,0-.24-.2l-1.27-.92-.41-.29A1.08,1.08,0,0,0,13.74,7Z"/><path class="cls-2" d="M10,8.24l.31.58A2.63,2.63,0,0,0,9.94,10L9,9l1-.73M10.25,7a1.1,1.1,0,0,0-.5.21L8.07,8.39q-.37.27-.39.45c0,.12.08.29.29.52l2,2.05a3.86,3.86,0,0,0,.11.68,2,2,0,0,0,.47.85,1.07,1.07,0,0,0,.7.37.53.53,0,0,0,.38-.17c.29-.29.12-.64-.11-1.2l-.34-.84,0-.08a1.86,1.86,0,0,1,.35-2.09h0l-.8-1.53c-.14-.25-.27-.39-.38-.42Z"/><path class="cls-2" d="M7.81,12.77a4.92,4.92,0,0,0,.37.81c.06.1.12.2.19.3L8.18,14l-.4-1.2h0m.77-1.14-1.38.22a.86.86,0,0,0-.55.23.82.82,0,0,0,0,.6l.66,2,0,.08a1.1,1.1,0,0,0,.2.38h0l.07,0a.2.2,0,0,0,.11,0,1,1,0,0,0,.45-.14l1.83-.86a3.85,3.85,0,0,1-.46-.38,3.69,3.69,0,0,1-1-2.18Z"/><path class="cls-2" d="M14.24,12.45l2,.32L15.83,14l-1.58-.71a2.46,2.46,0,0,0,0-.81m-1.76,3,.13.85H11.37l.08-.65a2.78,2.78,0,0,0,1-.2m.44-5.69a.5.5,0,0,0-.36.16c-.28.28-.08.67.16,1.23l.35.82a1.78,1.78,0,0,1-.34,2.14,1.83,1.83,0,0,1-1.31.54,2.21,2.21,0,0,1-.82-.16l-.28,2.08a.79.79,0,0,0,0,.59c.07.09.26.14.56.14H13a.85.85,0,0,0,.58-.14.74.74,0,0,0,.06-.59l-.41-2.66,2.53,1.14a1.08,1.08,0,0,0,.47.14.16.16,0,0,0,.1,0c.12,0,.23-.22.31-.51l.64-2a.82.82,0,0,0,.05-.6.86.86,0,0,0-.55-.23l-2.71-.44a2.1,2.1,0,0,0-.54-1.32.91.91,0,0,0-.63-.33Z"/></svg>