<svg id="Layer_1" data-name="Layer 1" xmlns="http://www.w3.org/2000/svg" viewBox="0 0 24 24"><defs><style>.cls-1,.cls-2{fill:none;stroke:#231f20;}.cls-1{stroke-linecap:round;}</style></defs><path class="cls-1" d="M8,8V7a4,4,0,0,1,4-4h0a4,4,0,0,1,4,4V8"/><path class="cls-1" d="M15,14V12"/><path class="cls-1" d="M9,14V12"/><path class="cls-2" d="M4,12c0-1.89,0-2.83.59-3.41S6.11,8,8,8h8c1.89,0,2.83,0,3.41.59S20,10.11,20,12v1c0,3.77,0,5.66-1.17,6.83S15.77,21,12,21h0c-3.77,0-5.66,0-6.83-1.17S4,16.77,4,13Z"/></svg>