<svg id="Layer_1" data-name="Layer 1" xmlns="http://www.w3.org/2000/svg" viewBox="0 0 24 24"><defs><style>.cls-1{fill:#231f20;fill-rule:evenodd;}</style></defs><path class="cls-1" d="M4.87,9.84,3.33,8.47a.5.5,0,0,0-.7,0,.5.5,0,0,0,0,.71l1.45,1.29Zm3.06,4c.33.26.64.5.94.7A5.4,5.4,0,0,0,12,15.66a5.4,5.4,0,0,0,3.13-1.15A42.94,42.94,0,0,0,19,11.34h0l0,0,2.35-2.09a.5.5,0,0,0,0-.71.5.5,0,0,0-.7,0l-2.36,2.1a44,44,0,0,1-3.74,3.12,4.52,4.52,0,0,1-2.57,1,4.52,4.52,0,0,1-2.57-1c-.23-.16-.48-.34-.74-.55Z"/><path class="cls-1" d="M16.07,10.19c-.33-.26-.64-.5-.94-.7A5.4,5.4,0,0,0,12,8.34,5.4,5.4,0,0,0,8.87,9.49a42.94,42.94,0,0,0-3.82,3.17l0,0L2.67,14.78a.5.5,0,0,0,0,.71.5.5,0,0,0,.7,0l2.36-2.1a44,44,0,0,1,3.74-3.12,4.52,4.52,0,0,1,2.57-1,4.52,4.52,0,0,1,2.57,1c.23.16.48.34.74.55Zm3.81,3.3-.75.67,1.54,1.37a.5.5,0,0,0,.7,0,.5.5,0,0,0,0-.71Z"/></svg>